<svg xmlns="http://www.w3.org/2000/svg" width="22" height="25" viewBox="0 0 22 25" fill="none">
<path d="M20.0036 0.0156402C19.9807 0.0135422 19.9614 0 19.9376 0H10.0835C8.56734 0 7.3335 1.40209 7.3335 3.125V4.1666C7.3335 4.74167 7.74405 5.2084 8.25011 5.2084C8.75616 5.2084 9.16672 4.74167 9.16672 4.1666V3.125C9.16672 2.55108 9.57828 2.0834 10.0835 2.0834H14.3542L14.0746 2.18964C13.3322 2.48127 12.8335 3.27606 12.8335 4.1666V19.7916H10.0835C9.57828 19.7916 9.16672 19.3239 9.16672 18.75V16.6666C9.16672 16.0917 8.75616 15.625 8.25011 15.625C7.74405 15.625 7.3335 16.0917 7.3335 16.6666V18.75C7.3335 20.4729 8.56734 21.875 10.0835 21.875H12.8335V22.9166C12.8335 24.0656 13.6556 25 14.6667 25C14.8629 25 15.0491 24.9678 15.2507 24.8968L20.758 22.8104C21.5014 22.5187 22.0001 21.7239 22.0001 20.8334V2.0834C22.0001 0.868797 21.0788 -0.0833511 20.0036 0.0156402V0.0156402Z" fill="white"/>
<path d="M9.81467 9.68018L6.14806 5.51357C5.88588 5.21564 5.49178 5.126 5.14886 5.28755C4.80696 5.44891 4.58339 5.82924 4.58339 6.25V9.375H0.916611C0.410721 9.375 0 9.84173 0 10.4166C0 10.9917 0.410721 11.4584 0.916611 11.4584H4.58339V14.5834C4.58339 15.0042 4.80696 15.3843 5.14886 15.5458C5.49178 15.7072 5.88588 15.6178 6.14806 15.3198L9.81467 11.153C10.1732 10.7458 10.1732 10.0876 9.81467 9.68018Z" fill="white"/>
</svg>