<svg xmlns="http://www.w3.org/2000/svg" width="33" height="33" viewBox="0 0 33 33" fill="none">
<path d="M26.0426 7.45248L18.9339 3.34123C17.5726 2.55748 15.4414 2.55748 14.0801 3.34123L6.90261 7.47998C4.05636 9.40498 3.89136 9.69373 3.89136 12.76V20.2262C3.89136 23.2925 4.05636 23.595 6.95761 25.5475L14.0664 29.6587C14.7539 30.0575 15.6339 30.25 16.5001 30.25C17.3664 30.25 18.2464 30.0575 18.9201 29.6587L26.0976 25.52C28.9439 23.595 29.1089 23.3062 29.1089 20.24V12.76C29.1089 9.69373 28.9439 9.40498 26.0426 7.45248Z" fill="white"/>
<path d="M16.5 20.9688C18.968 20.9688 20.9688 18.968 20.9688 16.5C20.9688 14.032 18.968 12.0312 16.5 12.0312C14.032 12.0312 12.0312 14.032 12.0312 16.5C12.0312 18.968 14.032 20.9688 16.5 20.9688Z" fill="white"/>
</svg>